<?xml version="1.0" encoding="utf-8"?>
<!-- Generator: Adobe Illustrator 19.2.1, SVG Export Plug-In . SVG Version: 6.00 Build 0)  -->
<svg version="1.1" id="layer" xmlns="http://www.w3.org/2000/svg" xmlns:xlink="http://www.w3.org/1999/xlink" x="0px" y="0px"
	 viewBox="0 0 652 652" style="enable-background:new 0 0 652 652;" xml:space="preserve">
<style type="text/css">
	.st0{fill:#B30838;}
</style>
<g>
	<path class="st0" d="M564.7,337.5c0.8,2.9-9.5,3.8-14,3.8c-17.1,0-54.1-0.8-93.8,24.2c-41,25.8-52.7,26.9-55.1,27.3
		c-0.5,0.1-2.4,0.3-2.4,2.1c0,1.5,2.2,1.8,3.1,1.8c2.8,0,16.3-1.1,53.3-17.5c24.1-10.7,40-9.9,43.6-9.9c12.2,0,26.7,3.6,51.1,14.2
		c32.3,14.1,62.6,13.2,67.3,13.2c0.8,0,3.1,0,3.1-1.7c0-1.7-1.8-2.1-2.4-2.2c-11.6-2.3-55.7-8.6-55.7-22.4c0-13.7,25.7-13,26.6-13
		c1,0,5.9-0.3,4.8-5.8c-0.6-3.1-3.3-5.8-5.9-7.8c0,0-25.8-22.2-57.3-20.8c-29.6,1.2,2.2,8.9,14.2,10.3
		C563.9,335.4,564.5,336.7,564.7,337.5"/>
	<path class="st0" d="M187.2,272.7h-16.6l1.5,11.8h13.1c30.1,0,37.9,9.7,37.9,23.5v3.9h-17c-7.8,0-47.1-0.4-47.1,34
		c0,0-1.4,31.4,35.3,31.4c23.5,0,28.6-12.6,28.6-12.6l0.2-0.7c0,0,0,1.2,0,1.6c-0.2,7.3,9.6,11.8,23.5,11.8c0,0,0-37.6,0-54.9
		C246.6,309.9,249.3,272.7,187.2,272.7 M223,334.2c0,11.8-2.5,31.4-23.5,31.4c-11.3,0-17-7.9-17-17c0-21.8,21.3-23.6,30.3-23.5
		c9,0,10.2,0,10.2,0V334.2z M57.4,271.4c13.2,0,23.6,2.6,23.6,10.5v95.5c-13.2,0-23.6-2.6-23.6-10.5V271.4z M157.4,374.8
		c0,0-10.1,2.6-20.9,2.6c-10.9,0-22.1-4-28.8-11.8c-7.9-9.2-7.9-22.3-7.9-40.6v-78.5c13.2,0,23.5,2.6,23.5,10.5v15.7h21.2l1.5,11.8
		h-22.7v64.1c0,17,13.7,17,17,17c6.5,0,15.7-1.3,15.7-1.3L157.4,374.8z M286.1,348.6c0,17,13.7,17,17,17c6.5,0,15.7-1.3,15.7-1.3
		l1.3,10.5c0,0-9.1,2.6-20.9,2.6c-10,0-22.1-4-28.8-11.8c-7.8-9.2-7.8-22.3-7.8-40.6v-78.5c13.2,0,23.5,2.6,23.5,10.5V348.6z
		 M33.3,352.5c6.9,0,12.4,5.5,12.4,12.4c0,6.9-5.6,12.4-12.4,12.4c-6.9,0-12.4-5.6-12.4-12.4C20.8,358.1,26.4,352.5,33.3,352.5
		 M400,288.4c-9.5-10.5-23.9-15.6-37.8-15.6c-14,0-28.4,5.1-37.9,15.6c-7.3,8.1-13.1,20.3-13.1,36.7c0,16.4,5.9,28.6,13.1,36.6
		c9.5,10.6,23.9,15.6,37.9,15.6c13.9,0,28.3-5.1,37.8-15.6c7.3-8.1,13.1-20.3,13.1-36.7C413.2,308.6,407.3,296.4,400,288.4
		 M385.4,349.5c-4.6,8.9-12.1,16.1-23.2,16.1h0c-11.1,0-18.7-7.1-23.3-16.1c-4.5-8.7-5.5-19.2-5.5-24.5c0-5.3,1.1-15.8,5.5-24.5
		c4.6-8.9,12.1-16,23.3-16h0c11.1,0,18.7,7.1,23.2,16c4.5,8.7,5.5,19.2,5.5,24.5C390.9,330.4,389.9,340.8,385.4,349.5"/>
</g>
</svg>
